<svg xmlns="http://www.w3.org/2000/svg" width="16" height="16"><style type="text/css">.st0{fill-rule:evenodd;clip-rule:evenodd;fill:#181616;}</style><path d="M8 0C3.58 0 0 3.7 0 8.2c0 3.6 2.3 6.7 5.5 7.78.4.1.55-.18.55-.4 0-.18 0-.7 0-1.38-2.23.5-2.7-1.1-2.7-1.1-.36-.95-.9-1.2-.9-1.2-.72-.5.07-.5.07-.5.8.1 1.2.8 1.2.85.7 1.3 1.9.9 2.3.7.07-.53.28-.9.5-1.1-1.77-.2-3.63-.9-3.63-4.05 0-.9.3-1.63.8-2.2-.06-.2-.3-1.1.1-2.2 0 0 .67-.22 2.2.84.64-.14 1.3-.24 2-.27.68.03 1.4.13 2 .23 1.53-1.06 2.2-.84 2.2-.84.44 1.1.2 2 .1 2.17.5.6.8 1.3.8 2.2 0 3.15-1.87 3.84-3.65 4.05.3.3.5.8.5 1.52 0 1.1 0 1.98 0 2.25 0 .2.1.5.6.4C13.7 14.9 16 11.8 16 8.2 16 3.7 12.4 0 8 0z" class="st0"/></svg>