<svg viewBox="0 0 16 16" x="0" y="0" width="16" height="16" version="1.1" xmlns="http://www.w3.org/2000/svg" xml:space="preserve"><style type="text/css">.st0{fill-rule:evenodd;clip-rule:evenodd;fill:#181616;}</style><path class="st0" d="M8 0C3.58 0 0 3.7 0 8.2c0 3.6 2.3 6.7 5.5 7.78 0.4 0.1 0.55-0.18 0.55-0.39 0-0.19-0.01-0.71-0.01-1.39 -2.22 0.5-2.69-1.1-2.69-1.1 -0.36-0.95-0.89-1.2-0.89-1.2 -0.73-0.51 0.06-0.5 0.06-0.5 0.8 0.1 1.2 0.8 1.2 0.85 0.71 1.3 1.9 0.9 2.3 0.7 0.07-0.53 0.28-0.89 0.51-1.1 -1.78-0.21-3.64-0.91-3.64-4.05 0-0.89 0.31-1.63 0.82-2.2C3.64 5.4 3.4 4.5 3.8 3.4c0 0 0.67-0.22 2.2 0.84C6.64 4.1 7.3 4 8 3.97 8.68 4 9.4 4.1 10 4.2c1.53-1.06 2.2-0.84 2.2-0.84 0.44 1.1 0.2 2 0.1 2.17 0.51 0.6 0.8 1.3 0.8 2.2 0 3.15-1.87 3.84-3.65 4.05 0.29 0.3 0.5 0.8 0.5 1.52 0 1.1-0.01 1.98-0.01 2.25 0 0.2 0.1 0.5 0.6 0.4C13.71 14.9 16 11.8 16 8.2 16 3.7 12.4 0 8 0Z"/></svg>